<svg xmlns="http://www.w3.org/2000/svg" width="281.31" height="211.167" viewBox="0 0 281.31 211.167"><path d="M143.962,4.5C66.3,4.5,3.375,45.853,3.375,96.884c0,35.689,30.821,66.648,75.9,82.046-3.515,14.188-14.194,25.846-22.643,33.269-1.555,1.375.135,3.574,2.433,3.464,7.773-.44,22.237-2.42,34.471-6.984,14.532-5.444,27.239-16.552,31.294-20.292,6.286.55,12.707.88,19.263.88,77.661,0,140.587-41.353,140.587-92.384C284.549,45.853,221.623,4.5,143.962,4.5Z" transform="translate(-3.375 -4.5)" fill="#5d3f3f"/></svg>
